<svg id="Layer_1" data-name="Layer 1" xmlns="http://www.w3.org/2000/svg" viewBox="0 0 792 325.98"><defs><style>.cls-1,.cls-2{fill:#231f20;}.cls-2{font-size:132.08px;font-family:TwCenMT-BoldItalic, Tw Cen MT;font-weight:700;font-style:italic;}.cls-2,.cls-7{letter-spacing:0.02em;}.cls-3{letter-spacing:-0.04em;}.cls-4{letter-spacing:0.02em;}.cls-5{letter-spacing:0.01em;}.cls-6{letter-spacing:-0.02em;}</style></defs><title>Artboard 3</title><path class="cls-1" d="M725.15,54.88c22.48,13.74,22.48,56.54-25.12,55.54l-20.17,47.1h17.85l86,168.46V233.67L742,149.58C801.15,121.35,805.82,40.33,747.63,0Z"/><polygon class="cls-1" points="597.71 325.98 597.71 0 733.26 0 710.78 54.88 642.67 54.88 642.67 110.42 685.65 110.42 665.49 157.37 642.01 157.37 642.01 223.72 597.71 325.98"/><text class="cls-2" transform="translate(0 89.54)">REINAL<tspan class="cls-3" x="393.85" y="0">D</tspan><tspan class="cls-4" x="465.56" y="0">Y</tspan><tspan x="144.33" y="114.54">EDBE</tspan><tspan class="cls-5" x="414.74" y="114.54">R</tspan><tspan x="486.2" y="114.54">T</tspan><tspan class="cls-6"><tspan x="139.62" y="229.08">F</tspan><tspan class="cls-7" x="193.34" y="229.08">A</tspan><tspan class="cls-5" x="279.83" y="229.08">R</tspan><tspan class="cls-7" x="351.28" y="229.08">GO</tspan></tspan></text><rect class="cls-1" x="570.05" width="10.04" height="325.98"/></svg>