<svg id="Layer_1" data-name="Layer 1" xmlns="http://www.w3.org/2000/svg" viewBox="0 0 792 325.98"><defs><style>.cls-1,.cls-2{fill:#fff;}.cls-2{font-size:131.49px;font-family:TwCenMT-BoldItalic, Tw Cen MT;font-weight:700;font-style:italic;}.cls-2,.cls-7{letter-spacing:0.02em;}.cls-3{letter-spacing:-0.04em;}.cls-4{letter-spacing:0.01em;}.cls-5{letter-spacing:-0.02em;}.cls-6{letter-spacing:0.02em;}</style></defs><title>Artboard 5</title><path class="cls-1" d="M722.54,57.88c22.38,13.68,22.38,56.28-25,55.29l-20.07,46.88h17.77l85.57,167.7V235.86l-41.47-83.71C798.19,124,802.84,43.39,744.92,3.24Z"/><polygon class="cls-1" points="595.67 327.75 595.67 3.24 730.61 3.24 708.23 57.88 640.43 57.88 640.43 113.17 683.21 113.17 663.14 159.9 639.77 159.9 639.77 225.95 595.67 327.75"/><text class="cls-2" transform="translate(0.65 92.38)">REINAL<tspan class="cls-3" x="392.07" y="0">D</tspan><tspan x="463.46" y="0">Y</tspan><tspan x="143.68" y="114.02">EDBE</tspan><tspan class="cls-4" x="412.87" y="114.02">R</tspan><tspan x="484.01" y="114.02">T</tspan><tspan class="cls-5"><tspan x="138.99" y="228.04">F</tspan><tspan class="cls-6" x="192.47" y="228.04">A</tspan><tspan class="cls-4" x="278.56" y="228.04">R</tspan><tspan class="cls-7" x="349.7" y="228.04">GO</tspan></tspan></text><rect class="cls-1" x="568.13" y="3.24" width="10" height="324.51"/></svg>