<svg id="Layer_1" data-name="Layer 1" xmlns="http://www.w3.org/2000/svg" viewBox="0 0 792 325.98"><defs><style>.cls-1{fill:#1b3764;}.cls-2,.cls-3{fill:#161241;}.cls-3{font-size:131.49px;font-family:TwCenMT-BoldItalic, Tw Cen MT;font-weight:700;font-style:italic;}.cls-3,.cls-8{letter-spacing:0.02em;}.cls-4{letter-spacing:-0.04em;}.cls-5{letter-spacing:0.01em;}.cls-6{letter-spacing:-0.02em;}.cls-7{letter-spacing:0.02em;}.cls-9{fill:#333;}</style></defs><title>Artboard 4</title><path class="cls-1" d="M722.15,55.37c22.38,13.68,22.38,56.28-25,55.29l-20.07,46.88h17.77l85.57,167.7V233.35l-41.47-83.71c58.87-28.11,63.52-108.75,5.59-148.9Z"/><polygon class="cls-2" points="595.29 325.24 595.29 0.73 730.23 0.73 707.85 55.37 640.05 55.37 640.05 110.66 682.83 110.66 662.76 157.39 639.39 157.39 639.39 223.45 595.29 325.24"/><text class="cls-3" transform="translate(0.27 89.87)">REINAL<tspan class="cls-4" x="392.07" y="0">D</tspan><tspan x="463.46" y="0">Y</tspan><tspan class="cls-1"><tspan x="143.68" y="114.02">EDBE</tspan><tspan class="cls-5" x="412.87" y="114.02">R</tspan><tspan x="484.01" y="114.02">T</tspan></tspan><tspan class="cls-6"><tspan x="138.99" y="228.04">F</tspan><tspan class="cls-7" x="192.47" y="228.04">A</tspan><tspan class="cls-5" x="278.56" y="228.04">R</tspan><tspan class="cls-8" x="349.7" y="228.04">GO</tspan></tspan></text><rect class="cls-9" x="567.75" y="0.74" width="10" height="324.51"/></svg>